<svg width="250" height="61" viewBox="0 0 250 61" xmlns="http://www.w3.org/2000/svg">
    <g fill="none" fill-rule="evenodd">
        <path fill="#FFF" d="M0 1.93v28.503h5.753v-12.21h9.057v-4.41H5.753V6.34h11.871V1.93zM35.473 13.69c-1.02-.898-2.251-1.347-3.693-1.347-1.441 0-2.645.449-3.61 1.348-.966.898-1.544 2.096-1.734 3.593h10.689c-.082-1.497-.632-2.695-1.652-3.593m-3.774 17.068c-3.291 0-5.97-1.068-8.037-3.205-2.067-2.137-3.1-4.962-3.1-8.473 0-3.512 1.04-6.323 3.12-8.433 2.081-2.109 4.774-3.164 8.078-3.164 3.305 0 6.018 1.027 8.14 3.083 2.12 2.055 3.181 4.798 3.181 8.228 0 .79-.055 1.525-.163 2.205H26.436c.136 1.47.68 2.654 1.632 3.552.952.899 2.162 1.348 3.631 1.348 1.985 0 3.454-.816 4.406-2.45h6.201c-.653 2.15-1.917 3.907-3.794 5.268-1.877 1.361-4.148 2.041-6.813 2.041M62.01 24.001c1.197-1.184 1.796-2.81 1.796-4.88 0-2.068-.599-3.695-1.795-4.88-1.197-1.183-2.598-1.776-4.203-1.776-1.605 0-2.998.586-4.181 1.756-1.183 1.171-1.775 2.791-1.775 4.86 0 2.069.598 3.702 1.796 4.9 1.196 1.198 2.59 1.797 4.181 1.797 1.591 0 2.985-.592 4.182-1.777m-12.953 3.471c-2.026-2.19-3.04-4.988-3.04-8.391 0-3.403 1.006-6.187 3.02-8.351 2.012-2.164 4.568-3.246 7.67-3.246 3.1 0 5.466 1.28 7.098 3.838V.215h5.712v30.218h-5.712v-3.798c-1.714 2.75-4.094 4.124-7.14 4.124-3.046 0-5.583-1.095-7.608-3.287M88.957 13.69c-1.02-.898-2.251-1.347-3.692-1.347-1.442 0-2.646.449-3.61 1.348-.967.898-1.544 2.096-1.735 3.593H90.61c-.082-1.497-.633-2.695-1.652-3.593m-3.774 17.068c-3.291 0-5.97-1.068-8.037-3.205-2.067-2.137-3.1-4.962-3.1-8.473 0-3.512 1.04-6.323 3.12-8.433 2.081-2.109 4.774-3.164 8.079-3.164 3.304 0 6.017 1.027 8.138 3.083 2.122 2.055 3.182 4.798 3.182 8.228 0 .79-.055 1.525-.163 2.205H79.92c.136 1.47.68 2.654 1.632 3.552.952.899 2.162 1.348 3.631 1.348 1.985 0 3.454-.816 4.406-2.45h6.201c-.653 2.15-1.917 3.907-3.794 5.268-1.876 1.361-4.148 2.041-6.813 2.041M106.846 7.81v4.002c1.523-2.885 3.726-4.328 6.609-4.328v5.88h-1.428c-1.713 0-3.006.429-3.876 1.286-.87.858-1.305 2.335-1.305 4.43v11.353h-5.753V7.81h5.753zM117.535 30.433V1.93h17.624v4.41h-11.872v7.473h9.057v4.41h-9.057v12.21zM154.088 24.001c1.197-1.184 1.795-2.81 1.795-4.88 0-2.068-.598-3.695-1.795-4.88-1.196-1.183-2.597-1.776-4.202-1.776s-2.998.586-4.181 1.756c-1.184 1.171-1.775 2.791-1.775 4.86 0 2.069.598 3.702 1.795 4.9 1.197 1.198 2.59 1.797 4.182 1.797 1.59 0 2.985-.592 4.181-1.777m-12.953 3.471c-2.026-2.19-3.039-4.988-3.039-8.391 0-3.403 1.006-6.187 3.019-8.351 2.012-2.164 4.57-3.246 7.67-3.246 3.1 0 5.467 1.28 7.098 3.838V7.81h5.712v22.623h-5.712v-3.798c-1.713 2.75-4.093 4.124-7.14 4.124-3.046 0-5.582-1.095-7.608-3.287M173.467 7.81v4.002c1.522-2.885 3.725-4.328 6.609-4.328v5.88h-1.428c-1.713 0-3.006.429-3.876 1.286-.87.858-1.305 2.335-1.305 4.43v11.353h-5.753V7.81h5.753zM189.908 7.81v3.39c1.44-2.477 3.78-3.716 7.017-3.716 1.713 0 3.243.394 4.59 1.184 1.346.79 2.386 1.92 3.12 3.39a8.815 8.815 0 0 1 3.244-3.35c1.373-.816 2.917-1.224 4.63-1.224 2.692 0 4.861.844 6.507 2.531 1.645 1.689 2.468 4.057 2.468 7.106v13.312h-5.711V17.937c0-1.769-.45-3.124-1.347-4.063-.897-.939-2.121-1.409-3.671-1.409-1.55 0-2.781.47-3.692 1.41-.912.938-1.367 2.293-1.367 4.062v12.496h-5.711V17.937c0-1.769-.45-3.124-1.347-4.063-.898-.939-2.121-1.409-3.672-1.409-1.55 0-2.78.47-3.691 1.41-.912.938-1.367 2.293-1.367 4.062v12.496h-5.753V7.81h5.753zM241.801 24.001c1.197-1.184 1.795-2.81 1.795-4.88 0-2.068-.598-3.695-1.795-4.88-1.197-1.183-2.597-1.776-4.202-1.776s-2.999.586-4.182 1.756c-1.183 1.171-1.774 2.791-1.774 4.86 0 2.069.598 3.702 1.795 4.9 1.196 1.198 2.59 1.797 4.181 1.797 1.591 0 2.985-.592 4.182-1.777m-12.953 3.471c-2.026-2.19-3.04-4.988-3.04-8.391 0-3.403 1.006-6.187 3.02-8.351 2.012-2.164 4.569-3.246 7.67-3.246 3.1 0 5.466 1.28 7.098 3.838V7.81h5.712v22.623h-5.712v-3.798c-1.713 2.75-4.094 4.124-7.14 4.124-3.046 0-5.582-1.095-7.608-3.287"/>
        <path d="M121.507 56.637c-2.094-2.043-3.141-4.642-3.141-7.799s1.047-5.761 3.14-7.814c2.095-2.053 4.669-3.08 7.723-3.08 2.186 0 4.131.495 5.833 1.486 1.702.99 2.987 2.435 3.853 4.333h-2.63a6.918 6.918 0 0 0-2.847-2.91c-1.238-.68-2.642-1.02-4.21-1.02-2.496 0-4.56.825-6.189 2.475-1.63 1.65-2.445 3.827-2.445 6.53 0 2.703.815 4.88 2.445 6.53 1.63 1.651 3.693 2.476 6.19 2.476 1.567 0 2.97-.345 4.209-1.036a7.013 7.013 0 0 0 2.847-2.925h2.63c-.866 1.898-2.15 3.342-3.853 4.333-1.702.99-3.647 1.485-5.833 1.485-3.054 0-5.628-1.021-7.722-3.064M147.055 36.613v8.759c1.134-2.043 3.002-3.064 5.602-3.064 1.877 0 3.445.614 4.704 1.841 1.258 1.228 1.888 2.998 1.888 5.308v10.059h-2.136v-9.657c0-1.857-.449-3.27-1.346-4.24-.898-.97-2.126-1.454-3.683-1.454-1.558 0-2.785.485-3.683 1.454-.897.97-1.346 2.383-1.346 4.24v9.657h-2.167V36.613h2.167zM176.874 56.065c1.227-1.27 1.84-2.935 1.84-4.999 0-2.062-.613-3.729-1.84-4.998-1.228-1.269-2.708-1.903-4.442-1.903-1.733 0-3.208.609-4.425 1.826-1.218 1.218-1.826 2.863-1.826 4.936 0 2.074.614 3.766 1.841 5.076 1.227 1.31 2.703 1.965 4.426 1.965 1.722 0 3.198-.635 4.426-1.903m-10.6 1.253c-1.548-1.671-2.322-3.801-2.322-6.39 0-2.59.769-4.674 2.306-6.252 1.537-1.579 3.492-2.368 5.865-2.368 1.526 0 2.867.372 4.023 1.114 1.155.743 2.012 1.702 2.569 2.878v-3.682h2.166v16.897h-2.166v-3.714c-.557 1.177-1.414 2.141-2.569 2.894-1.156.754-2.497 1.13-4.023 1.13-2.352 0-4.302-.836-5.85-2.507M188.99 42.618v2.754c1.134-2.043 3.001-3.064 5.6-3.064 1.878 0 3.447.614 4.705 1.841 1.258 1.228 1.888 2.998 1.888 5.308v10.058h-2.135V49.86c0-1.856-.449-3.27-1.347-4.24-.897-.97-2.125-1.454-3.683-1.454-1.558 0-2.785.485-3.683 1.455-.897.97-1.346 2.383-1.346 4.24v9.655h-2.166V42.618h2.166zM209.137 42.618v2.754c1.134-2.043 3.002-3.064 5.601-3.064 1.878 0 3.446.614 4.705 1.841 1.258 1.228 1.887 2.998 1.887 5.308v10.058h-2.135V49.86c0-1.856-.449-3.27-1.346-4.24-.898-.97-2.125-1.454-3.683-1.454-1.558 0-2.785.485-3.683 1.455-.898.97-1.346 2.383-1.346 4.24v9.655h-2.167V42.618h2.167zM240.085 50.138c0-1.857-.562-3.337-1.686-4.441-1.125-1.104-2.518-1.656-4.179-1.656-1.66 0-3.043.542-4.147 1.625s-1.707 2.574-1.81 4.472h11.822zm-5.91 9.687c-2.415 0-4.375-.805-5.88-2.414-1.508-1.61-2.26-3.73-2.26-6.36 0-2.63.768-4.745 2.305-6.344 1.537-1.6 3.528-2.4 5.974-2.4 2.444 0 4.388.754 5.833 2.26 1.444 1.506 2.166 3.373 2.166 5.602 0 .599-.041 1.156-.123 1.671h-13.927c.082 1.94.67 3.466 1.764 4.58 1.093 1.115 2.476 1.672 4.147 1.672 1.3 0 2.409-.3 3.327-.898.918-.598 1.552-1.382 1.903-2.352h2.321a7.952 7.952 0 0 1-2.723 3.575c-1.259.939-2.868 1.408-4.828 1.408zM247.141 59.515h2.166V36.613h-2.166z" fill="#00A9EA"/>
        <path fill="#EFEFEF" d="M0 49.509h14.183v-2.58H0z"/>
        <path fill="#FFD100" d="M14.183 49.509h14.183v-2.58H14.183z"/>
        <path fill="#00D3FE" d="M28.366 49.509H42.55v-2.58H28.366z"/>
        <path fill="#00D400" d="M42.55 49.509h14.182v-2.58H42.55z"/>
        <path fill="#DD30B8" d="M56.723 49.509h14.183v-2.58H56.723z"/>
        <path fill="#DE1F00" d="M70.906 49.509h14.183v-2.58H70.906z"/>
        <path fill="#0433FF" d="M85.089 49.509h14.183v-2.58H85.089z"/>
        <path fill="#000" d="M99.272 49.509h14.183v-2.58H99.272z"/>
    </g>
</svg>
